<svg width="32" height="32" viewBox="0 0 32 32" fill="none" xmlns="http://www.w3.org/2000/svg">
<path d="M22.6653 25.3316C22.3117 25.3316 21.9726 25.1912 21.7225 24.9411C21.4725 24.6911 21.332 24.352 21.332 23.9984V21.3319C21.332 20.6247 21.613 19.9465 22.113 19.4464C22.6131 18.9463 23.2913 18.6654 23.9985 18.6654H26.665C27.3722 18.6654 28.0504 18.9463 28.5505 19.4464C29.0506 19.9465 29.3315 20.6247 29.3315 21.3319V23.9984C29.3315 24.352 29.191 24.6911 28.941 24.9411C28.691 25.1912 28.3519 25.3316 27.9983 25.3316H22.6653Z" stroke="white" stroke-width="3" stroke-linecap="round" stroke-linejoin="round"/>
<path d="M22.6653 25.3316C22.3117 25.3316 21.9726 25.1912 21.7225 24.9411C21.4725 24.6911 21.332 24.352 21.332 23.9984V21.3319C21.332 20.6247 21.613 19.9465 22.113 19.4464C22.6131 18.9463 23.2913 18.6654 23.9985 18.6654H26.665C27.3722 18.6654 28.0504 18.9463 28.5505 19.4464C29.0506 19.9465 29.3315 20.6247 29.3315 21.3319V23.9984C29.3315 24.352 29.191 24.6911 28.941 24.9411C28.691 25.1912 28.3519 25.3316 27.9983 25.3316H22.6653Z" stroke="url(#paint0_linear_41_881)" stroke-width="3" stroke-linecap="round" stroke-linejoin="round"/>
<path d="M22.665 27.9982V25.3317" stroke="white" stroke-width="3" stroke-linecap="round" stroke-linejoin="round"/>
<path d="M22.665 27.9982V25.3317" stroke="url(#paint1_linear_41_881)" stroke-width="3" stroke-linecap="round" stroke-linejoin="round"/>
<path d="M25.3383 18.6651V8.66574C25.3383 7.42815 24.8466 6.24125 23.9715 5.36613C23.0964 4.49102 21.9095 3.99939 20.6719 3.99939C19.4343 3.99939 18.2474 4.49102 17.3723 5.36613C16.4972 6.24125 16.0056 7.42815 16.0056 8.66574V23.3314C16.0056 24.569 15.5139 25.7559 14.6388 26.631C13.7637 27.5062 12.5768 27.9978 11.3392 27.9978C10.1016 27.9978 8.91471 27.5062 8.0396 26.631C7.16448 25.7559 6.67285 24.569 6.67285 23.3314V13.3321" stroke="white" stroke-width="3" stroke-linecap="round" stroke-linejoin="round"/>
<path d="M25.3383 18.6651V8.66574C25.3383 7.42815 24.8466 6.24125 23.9715 5.36613C23.0964 4.49102 21.9095 3.99939 20.6719 3.99939C19.4343 3.99939 18.2474 4.49102 17.3723 5.36613C16.4972 6.24125 16.0056 7.42815 16.0056 8.66574V23.3314C16.0056 24.569 15.5139 25.7559 14.6388 26.631C13.7637 27.5062 12.5768 27.9978 11.3392 27.9978C10.1016 27.9978 8.91471 27.5062 8.0396 26.631C7.16448 25.7559 6.67285 24.569 6.67285 23.3314V13.3321" stroke="url(#paint2_linear_41_881)" stroke-width="3" stroke-linecap="round" stroke-linejoin="round"/>
<path d="M27.998 27.9982V25.3317" stroke="white" stroke-width="3" stroke-linecap="round" stroke-linejoin="round"/>
<path d="M27.998 27.9982V25.3317" stroke="url(#paint3_linear_41_881)" stroke-width="3" stroke-linecap="round" stroke-linejoin="round"/>
<path d="M3.99976 6.66624V3.99976" stroke="white" stroke-width="3" stroke-linecap="round" stroke-linejoin="round"/>
<path d="M3.99976 6.66624V3.99976" stroke="url(#paint4_linear_41_881)" stroke-width="3" stroke-linecap="round" stroke-linejoin="round"/>
<path d="M5.33299 13.3325C4.6258 13.3325 3.94756 13.0515 3.4475 12.5515C2.94744 12.0514 2.6665 11.3732 2.6665 10.666V7.9995C2.6665 7.64591 2.80697 7.30679 3.057 7.05676C3.30703 6.80673 3.64615 6.66626 3.99975 6.66626H9.33273C9.68632 6.66626 10.0254 6.80673 10.2755 7.05676C10.5255 7.30679 10.666 7.64591 10.666 7.9995V10.666C10.666 11.3732 10.385 12.0514 9.88497 12.5515C9.38491 13.0515 8.70668 13.3325 7.99948 13.3325H5.33299Z" stroke="white" stroke-width="3" stroke-linecap="round" stroke-linejoin="round"/>
<path d="M5.33299 13.3325C4.6258 13.3325 3.94756 13.0515 3.4475 12.5515C2.94744 12.0514 2.6665 11.3732 2.6665 10.666V7.9995C2.6665 7.64591 2.80697 7.30679 3.057 7.05676C3.30703 6.80673 3.64615 6.66626 3.99975 6.66626H9.33273C9.68632 6.66626 10.0254 6.80673 10.2755 7.05676C10.5255 7.30679 10.666 7.64591 10.666 7.9995V10.666C10.666 11.3732 10.385 12.0514 9.88497 12.5515C9.38491 13.0515 8.70668 13.3325 7.99948 13.3325H5.33299Z" stroke="url(#paint5_linear_41_881)" stroke-width="3" stroke-linecap="round" stroke-linejoin="round"/>
<path d="M9.33276 6.66624V3.99976" stroke="white" stroke-width="3" stroke-linecap="round" stroke-linejoin="round"/>
<path d="M9.33276 6.66624V3.99976" stroke="url(#paint6_linear_41_881)" stroke-width="3" stroke-linecap="round" stroke-linejoin="round"/>
<defs>
<linearGradient id="paint0_linear_41_881" x1="21.332" y1="21.9985" x2="29.3315" y2="21.9985" gradientUnits="userSpaceOnUse">
<stop stop-color="#C20013"/>
<stop offset="1" stop-color="#E01E7C"/>
</linearGradient>
<linearGradient id="paint1_linear_41_881" x1="22.665" y1="26.6649" x2="23.665" y2="26.6649" gradientUnits="userSpaceOnUse">
<stop stop-color="#C20013"/>
<stop offset="1" stop-color="#E01E7C"/>
</linearGradient>
<linearGradient id="paint2_linear_41_881" x1="6.67285" y1="15.9986" x2="25.3383" y2="15.9986" gradientUnits="userSpaceOnUse">
<stop stop-color="#C20013"/>
<stop offset="1" stop-color="#E01E7C"/>
</linearGradient>
<linearGradient id="paint3_linear_41_881" x1="27.998" y1="26.6649" x2="28.998" y2="26.6649" gradientUnits="userSpaceOnUse">
<stop stop-color="#C20013"/>
<stop offset="1" stop-color="#E01E7C"/>
</linearGradient>
<linearGradient id="paint4_linear_41_881" x1="3.99976" y1="5.333" x2="4.99976" y2="5.333" gradientUnits="userSpaceOnUse">
<stop stop-color="#C20013"/>
<stop offset="1" stop-color="#E01E7C"/>
</linearGradient>
<linearGradient id="paint5_linear_41_881" x1="2.6665" y1="9.99937" x2="10.666" y2="9.99937" gradientUnits="userSpaceOnUse">
<stop stop-color="#C20013"/>
<stop offset="1" stop-color="#E01E7C"/>
</linearGradient>
<linearGradient id="paint6_linear_41_881" x1="9.33276" y1="5.333" x2="10.3328" y2="5.333" gradientUnits="userSpaceOnUse">
<stop stop-color="#C20013"/>
<stop offset="1" stop-color="#E01E7C"/>
</linearGradient>
</defs>
</svg>
