<svg width="32" height="32" viewBox="0 0 32 32" fill="none" xmlns="http://www.w3.org/2000/svg">
<path d="M5.33325 6.66671C5.33325 6.31309 5.47373 5.97395 5.72378 5.7239C5.97383 5.47385 6.31296 5.33337 6.66659 5.33337H25.3333C25.6869 5.33337 26.026 5.47385 26.2761 5.7239C26.5261 5.97395 26.6666 6.31309 26.6666 6.66671V9.33337C26.6666 9.687 26.5261 10.0261 26.2761 10.2762C26.026 10.5262 25.6869 10.6667 25.3333 10.6667H6.66659C6.31296 10.6667 5.97383 10.5262 5.72378 10.2762C5.47373 10.0261 5.33325 9.687 5.33325 9.33337V6.66671ZM5.33325 17.3334C5.33325 16.9798 5.47373 16.6406 5.72378 16.3906C5.97383 16.1405 6.31296 16 6.66659 16H14.6666C15.0202 16 15.3593 16.1405 15.6094 16.3906C15.8594 16.6406 15.9999 16.9798 15.9999 17.3334V25.3334C15.9999 25.687 15.8594 26.0261 15.6094 26.2762C15.3593 26.5262 15.0202 26.6667 14.6666 26.6667H6.66659C6.31296 26.6667 5.97383 26.5262 5.72378 26.2762C5.47373 26.0261 5.33325 25.687 5.33325 25.3334V17.3334ZM21.3333 17.3334C21.3333 16.9798 21.4737 16.6406 21.7238 16.3906C21.9738 16.1405 22.313 16 22.6666 16H25.3333C25.6869 16 26.026 16.1405 26.2761 16.3906C26.5261 16.6406 26.6666 16.9798 26.6666 17.3334V25.3334C26.6666 25.687 26.5261 26.0261 26.2761 26.2762C26.026 26.5262 25.6869 26.6667 25.3333 26.6667H22.6666C22.313 26.6667 21.9738 26.5262 21.7238 26.2762C21.4737 26.0261 21.3333 25.687 21.3333 25.3334V17.3334Z" stroke="url(#paint0_linear_59_408)" stroke-width="2" stroke-linecap="round" stroke-linejoin="round"/>
<defs>
<linearGradient id="paint0_linear_59_408" x1="5.33325" y1="16" x2="26.6666" y2="16" gradientUnits="userSpaceOnUse">
<stop stop-color="#C20013"/>
<stop offset="1" stop-color="#E01E7C"/>
</linearGradient>
</defs>
</svg>
